<?xml version="1.0" standalone="no"?>
<!DOCTYPE svg PUBLIC "-//W3C//DTD SVG 20010904//EN"
 "http://www.w3.org/TR/2001/REC-SVG-20010904/DTD/svg10.dtd">
<svg version="1.0" xmlns="http://www.w3.org/2000/svg"
 width="912.000000pt" height="912.000000pt" viewBox="0 0 912.000000 912.000000"
 preserveAspectRatio="xMidYMid meet">
<metadata>
Created by potrace 1.14, written by Peter Selinger 2001-2017
</metadata>
<g transform="translate(0.000000,912.000000) scale(0.100000,-0.100000)"
fill="#000000" stroke="none">
<path d="M3060 9037 c-5 -5 -134 -19 -182 -21 -16 -1 -28 -4 -28 -8 0 -3 -11
-5 -25 -3 -14 1 -25 -1 -25 -4 0 -4 -8 -7 -17 -8 -30 -2 -219 -47 -253 -59 -8
-3 -17 -5 -20 -6 -3 0 -48 -16 -100 -35 -52 -19 -102 -36 -110 -38 -68 -17
-470 -203 -470 -217 0 -5 -4 -7 -9 -4 -5 3 -19 -2 -32 -12 -22 -17 -77 -47
-136 -76 -13 -6 -23 -14 -23 -18 0 -5 -6 -8 -14 -8 -8 0 -16 -4 -18 -9 -1 -5
-9 -11 -17 -13 -8 -2 -22 -8 -30 -15 -9 -6 -87 -59 -173 -117 -87 -58 -164
-110 -170 -116 -7 -6 -35 -27 -63 -48 -27 -20 -51 -40 -53 -44 -2 -5 -10 -8
-18 -8 -8 0 -14 -4 -14 -8 0 -4 -23 -26 -52 -47 -28 -22 -56 -44 -62 -50 -6
-5 -38 -32 -71 -60 -33 -27 -80 -69 -104 -92 l-44 -41 59 -104 c32 -57 60
-109 62 -115 2 -7 8 -13 13 -13 5 0 9 -4 9 -10 0 -12 141 -234 152 -238 4 -2
8 -8 8 -13 0 -7 115 -175 130 -189 3 -3 30 -39 61 -80 31 -41 66 -86 78 -100
11 -14 30 -36 41 -50 47 -57 64 -78 123 -144 112 -125 282 -291 402 -391 39
-32 72 -62 73 -67 2 -4 8 -8 14 -8 5 0 15 -6 22 -12 7 -7 24 -21 37 -31 71
-51 67 -45 42 -64 -11 -10 -35 -29 -53 -43 -91 -72 -261 -235 -363 -350 -61
-68 -227 -283 -227 -294 0 -4 -5 -12 -10 -19 -18 -20 -89 -134 -115 -183 -14
-26 -31 -54 -37 -62 -7 -8 -12 -17 -11 -18 2 -2 -17 -44 -41 -94 -25 -49 -42
-90 -38 -90 4 0 2 -4 -4 -8 -12 -8 -118 -289 -129 -342 -4 -19 -10 -39 -13
-45 -4 -5 -8 -19 -9 -29 -2 -10 -12 -53 -22 -95 -23 -89 -33 -146 -45 -241 -3
-25 -8 -58 -11 -75 -35 -211 -20 -656 30 -895 3 -14 8 -38 11 -55 2 -16 9 -46
14 -65 5 -19 11 -46 14 -60 2 -14 5 -26 7 -27 1 -2 2 -6 3 -10 54 -208 175
-505 277 -683 8 -14 29 -51 47 -82 18 -31 40 -62 47 -68 8 -7 15 -17 15 -23 0
-8 93 -143 137 -197 79 -99 164 -193 252 -280 95 -94 136 -131 221 -200 14
-11 36 -30 50 -41 42 -35 251 -174 315 -210 33 -18 62 -35 65 -38 7 -8 79 -41
84 -38 1 1 11 -4 20 -12 16 -14 110 -61 131 -67 6 -1 44 -16 85 -34 128 -54
338 -119 470 -146 200 -40 261 -49 420 -60 136 -9 323 -9 430 1 47 4 101 8
120 10 51 4 210 31 290 49 14 3 34 8 45 10 95 19 293 82 430 137 17 7 32 13
35 13 18 4 294 145 338 172 29 19 55 34 57 34 3 0 28 16 55 35 27 19 52 35 55
35 3 0 13 6 22 14 10 8 59 45 108 82 50 37 104 80 120 95 17 15 57 51 89 81
58 52 177 172 213 214 10 12 34 41 53 64 19 24 40 48 45 54 6 6 24 29 40 51
17 22 32 42 35 45 12 11 130 189 130 195 0 4 9 20 20 35 65 91 250 488 250
535 0 8 5 15 12 15 6 0 9 3 5 6 -3 3 -1 18 4 33 9 21 37 121 64 221 17 65 55
276 51 287 -3 7 -2 13 2 13 4 0 8 15 9 33 1 17 6 68 10 112 10 104 10 406 0
515 -9 108 -22 207 -27 220 -1 3 -2 9 -1 13 2 10 -25 140 -38 185 -5 18 -10
33 -10 35 1 10 -47 189 -58 217 -3 8 -7 22 -9 30 -2 8 -9 30 -18 50 -8 19 -29
71 -46 115 -136 342 -372 696 -641 964 -94 94 -212 201 -238 215 -9 5 -20 15
-26 21 -26 31 -297 213 -377 254 -16 8 -28 17 -28 21 0 3 12 13 28 22 15 9 76
53 136 98 126 94 104 77 230 180 l98 81 33 -26 c19 -14 36 -25 40 -25 3 0 11
-5 18 -10 7 -6 55 -43 107 -82 223 -167 424 -358 595 -563 27 -33 54 -66 60
-72 17 -21 43 -56 85 -113 22 -30 44 -60 50 -67 5 -7 10 -16 10 -22 0 -5 3
-11 8 -13 11 -5 52 -66 52 -78 0 -5 3 -10 8 -10 4 0 18 -21 31 -47 14 -27 30
-55 37 -63 43 -55 229 -438 250 -515 1 -5 16 -47 33 -92 29 -79 95 -295 106
-351 3 -15 8 -38 11 -52 3 -14 9 -41 14 -60 5 -19 12 -55 15 -79 3 -23 7 -47
10 -51 3 -4 7 -34 10 -66 3 -33 7 -70 10 -84 5 -23 11 -87 20 -205 5 -61 5
-383 0 -445 -1 -25 -6 -76 -10 -115 -4 -38 -9 -86 -10 -105 -2 -19 -4 -35 -5
-35 -1 0 -5 -20 -14 -95 -6 -49 -13 -83 -31 -165 -2 -11 -11 -51 -20 -90 -8
-38 -18 -77 -21 -85 -3 -8 -8 -26 -10 -39 -7 -37 -102 -317 -130 -383 -40 -95
-83 -190 -104 -229 -11 -20 -17 -39 -13 -43 3 -3 1 -6 -5 -6 -7 0 -12 -6 -12
-13 0 -7 -11 -29 -25 -50 -14 -20 -22 -37 -18 -37 4 0 3 -4 -3 -8 -6 -4 -22
-27 -35 -52 -14 -25 -32 -56 -41 -70 -8 -14 -37 -59 -64 -100 -48 -75 -190
-269 -239 -325 -14 -16 -47 -55 -73 -85 -108 -125 -281 -288 -432 -409 -52
-42 -96 -79 -98 -83 -2 -5 -8 -8 -14 -8 -5 0 -16 -6 -23 -13 -34 -30 -43 -35
-49 -30 -3 4 -6 1 -6 -4 0 -9 -73 -62 -115 -83 -5 -3 -30 -18 -54 -34 -58 -37
-135 -81 -191 -109 -25 -12 -47 -24 -50 -27 -8 -9 -229 -110 -240 -110 -5 0
-10 -4 -10 -10 0 -5 -7 -7 -15 -4 -8 4 -15 1 -15 -5 0 -6 -10 -11 -23 -11 -13
0 -27 -4 -32 -9 -8 -7 -65 -29 -95 -36 -3 -1 -16 -6 -30 -12 -48 -20 -215 -71
-255 -78 -11 -2 -21 -4 -22 -5 -2 -2 -6 -3 -10 -4 -131 -31 -204 -47 -230 -49
-18 -1 -33 -6 -33 -10 0 -5 -3 -6 -8 -3 -4 2 -30 0 -57 -5 -28 -6 -72 -12
-100 -14 -27 -3 -70 -7 -95 -10 -96 -12 -181 -16 -345 -15 -198 0 -311 7 -435
25 -14 2 -48 7 -76 10 -28 3 -61 8 -75 11 -13 2 -35 6 -49 9 -14 2 -45 8 -70
14 -25 5 -56 12 -70 15 -14 3 -36 7 -50 10 -35 8 -242 66 -260 73 -8 4 -17 7
-20 8 -145 44 -290 104 -490 203 -96 47 -177 89 -180 92 -9 11 -141 90 -150
90 -4 0 -10 4 -12 8 -2 5 -39 33 -82 62 -78 52 -241 179 -321 250 -64 56 -276
271 -327 330 -74 88 -142 172 -168 210 -13 19 -27 37 -30 40 -9 8 -154 229
-186 285 -16 27 -37 63 -46 80 -35 60 -137 272 -173 360 -58 140 -138 377
-160 476 -2 9 -8 34 -14 54 -6 21 -8 42 -5 47 3 4 1 8 -4 8 -6 0 -9 6 -9 13 1
6 -6 53 -15 102 -53 273 -70 542 -54 840 4 72 9 144 11 160 2 17 6 53 9 80 4
28 9 66 12 85 12 74 13 96 2 125 -20 54 -64 84 -128 87 -34 2 -55 -7 -85 -36
-19 -19 -35 -38 -36 -43 0 -4 -2 -15 -4 -23 -1 -8 -6 -35 -10 -60 -3 -25 -8
-56 -10 -70 -7 -47 -17 -133 -22 -194 -9 -106 -9 -526 -1 -526 5 0 4 -8 -1
-19 -6 -10 -9 -20 -6 -22 2 -2 6 -31 10 -64 7 -77 25 -226 29 -245 5 -24 19
-114 21 -130 1 -8 5 -26 8 -40 8 -31 17 -76 23 -113 2 -16 6 -33 10 -38 5 -9
13 -42 19 -79 1 -8 5 -22 8 -30 5 -11 31 -100 42 -140 1 -3 4 -12 7 -20 4 -8
18 -51 33 -95 15 -44 40 -111 56 -149 16 -37 29 -74 29 -82 0 -8 5 -14 10 -14
6 0 10 -6 10 -13 0 -8 18 -51 40 -96 22 -45 40 -85 40 -89 0 -5 6 -14 12 -20
7 -7 13 -16 13 -20 0 -10 82 -156 122 -219 18 -29 33 -57 33 -63 0 -5 4 -10 9
-10 5 0 13 -9 16 -20 3 -11 12 -26 18 -32 7 -7 35 -47 62 -88 28 -41 52 -77
55 -80 3 -3 28 -34 55 -70 151 -198 369 -426 565 -590 23 -19 47 -40 53 -46 7
-6 59 -45 117 -88 58 -42 113 -84 123 -92 9 -8 19 -14 21 -14 3 0 33 -19 68
-42 131 -87 450 -259 499 -270 8 -2 16 -6 19 -9 18 -23 491 -188 575 -201 11
-2 25 -7 31 -11 7 -4 29 -9 50 -13 34 -5 85 -15 149 -30 11 -3 29 -7 40 -8 11
-2 49 -9 84 -15 35 -5 67 -8 72 -6 4 3 10 2 13 -3 2 -4 23 -9 44 -10 22 -2 55
-5 73 -8 185 -26 725 -26 854 1 11 3 43 7 70 9 28 3 64 8 80 11 17 3 44 7 60
10 17 3 41 7 55 10 14 3 41 8 60 11 19 3 38 8 41 10 3 2 19 6 35 8 89 17 346
89 409 116 26 11 59 23 65 24 9 2 75 28 117 47 24 11 45 19 48 19 18 0 301
140 400 198 77 45 237 144 250 155 6 4 40 29 76 55 78 55 128 93 143 108 6 6
18 15 27 20 66 38 369 325 475 450 23 27 52 60 64 74 46 53 56 66 85 105 17
22 35 45 40 52 44 54 105 142 105 153 0 5 6 13 13 17 6 4 17 17 24 28 7 11 34
56 60 100 26 44 53 87 58 96 22 36 95 179 94 185 0 4 3 10 8 13 21 14 134 282
195 461 42 122 93 302 103 359 3 19 7 37 9 40 2 3 7 22 10 41 3 19 8 46 11 60
13 57 27 137 31 170 2 19 6 53 10 75 27 189 38 607 21 790 -11 116 -18 178
-23 215 -3 19 -7 46 -9 60 -9 62 -25 157 -31 180 -4 14 -7 35 -8 48 0 12 -5
22 -10 22 -5 0 -7 2 -4 5 5 5 -2 36 -37 170 -9 33 -18 67 -20 75 -2 8 -4 16
-5 18 -2 1 -3 5 -4 10 -9 32 -41 125 -76 217 -23 61 -49 131 -59 157 -9 25
-23 53 -30 62 -8 9 -11 16 -7 16 3 0 -3 16 -15 36 -11 20 -17 39 -14 43 8 7
97 39 148 52 21 5 45 13 55 18 9 5 55 24 102 42 330 125 684 333 887 522 23
22 55 51 70 66 84 77 250 295 268 350 3 11 11 21 16 21 5 0 9 4 9 10 0 5 14
39 30 75 16 36 30 69 30 74 0 4 7 21 14 37 8 16 18 44 21 63 3 19 8 38 11 43
6 9 12 36 20 88 3 19 7 40 9 47 25 74 25 469 0 583 -3 14 -7 41 -10 60 -2 19
-5 36 -6 38 -4 5 -20 97 -21 117 0 6 -4 17 -9 26 -4 9 -11 30 -14 47 -7 43
-74 261 -86 284 -6 11 -12 27 -14 36 -7 31 -33 98 -64 166 -17 36 -31 69 -31
72 0 10 -142 290 -153 301 -28 28 -439 -118 -698 -247 -138 -69 -316 -174
-384 -226 -25 -19 -48 -34 -51 -34 -11 0 -151 -120 -233 -200 -87 -85 -201
-220 -201 -239 0 -5 -3 -11 -8 -13 -19 -8 -144 -240 -159 -293 -1 -5 -12 -41
-24 -80 -11 -38 -22 -79 -23 -90 -1 -11 -5 -25 -9 -32 -4 -6 -9 -29 -11 -50
-3 -21 -8 -69 -12 -108 -10 -90 -10 -265 1 -380 12 -142 13 -150 16 -150 1 0
3 -9 4 -20 4 -30 33 -166 44 -202 5 -18 8 -33 5 -33 -3 0 0 -8 5 -18 6 -11 12
-30 15 -43 2 -13 11 -46 20 -72 8 -27 13 -47 12 -45 -2 1 -32 39 -67 83 -102
127 -104 129 -225 256 -68 72 -207 204 -269 256 -28 23 -60 50 -72 60 -52 44
-64 53 -68 53 -4 0 -34 24 -69 55 -6 6 -45 32 -86 60 -41 27 -80 54 -87 60 -7
5 -41 28 -77 50 -38 23 -70 50 -76 65 -17 43 -272 431 -296 451 -8 6 -14 18
-14 25 0 8 -5 14 -10 14 -6 0 -14 8 -17 18 -4 9 -12 22 -17 28 -6 6 -24 28
-41 49 -57 73 -119 150 -136 170 -10 11 -37 43 -61 70 -47 56 -323 333 -378
380 -19 17 -73 61 -120 98 -47 38 -92 74 -101 81 -51 42 -263 174 -362 226
-114 60 -307 144 -307 133 0 -3 -6 -1 -12 5 -11 9 -169 55 -231 68 -41 8 -82
16 -107 20 -14 2 -38 6 -55 9 -38 7 -439 17 -445 12z"/>
</g>
</svg>
