<?xml version="1.0" encoding="utf-8"?><svg viewBox="0 0 105 56" xmlns="http://www.w3.org/2000/svg" xmlns:xlink="http://www.w3.org/1999/xlink"><style>:root>svg{display:none}:root>svg:target{display:block}</style><svg fill="none" viewBox="0 0 105 31" id="app-store" xmlns="http://www.w3.org/2000/svg"><path d="M100.964.047H4.667C2.54.047.815 1.727.815 3.797v22.5c0 2.071 1.725 3.75 3.852 3.75h96.297c2.127 0 3.851-1.679 3.851-3.75v-22.5c0-2.071-1.724-3.75-3.851-3.75z" fill="#000"/><path d="M100.964.647c.858 0 1.681.332 2.287.923.607.59.948 1.392.948 2.227v22.5c0 .836-.341 1.637-.948 2.227a3.278 3.278 0 01-2.287.923H4.667a3.28 3.28 0 01-2.288-.922 3.108 3.108 0 01-.947-2.228v-22.5c0-.835.34-1.637.947-2.227A3.28 3.28 0 014.667.647h96.297zm0-.6H4.667a3.906 3.906 0 00-2.723 1.098A3.7 3.7 0 00.815 3.797v22.5a3.7 3.7 0 001.129 2.652 3.906 3.906 0 002.723 1.098h96.297a3.905 3.905 0 002.723-1.098 3.698 3.698 0 001.128-2.652v-22.5c0-.994-.405-1.948-1.128-2.652a3.904 3.904 0 00-2.723-1.098z" fill="#A6A6A6"/><path d="M25.554 14.532c-.021-2.303 1.937-3.424 2.027-3.476-1.11-1.574-2.828-1.79-3.433-1.807-1.443-.147-2.844.841-3.58.841-.75 0-1.882-.826-3.103-.802-1.57.024-3.04.909-3.846 2.284-1.663 2.803-.423 6.923 1.17 9.189.798 1.11 1.73 2.349 2.949 2.305 1.192-.047 1.638-.74 3.077-.74 1.426 0 1.845.74 3.088.712 1.28-.02 2.086-1.114 2.856-2.234.92-1.272 1.29-2.525 1.305-2.59-.03-.01-2.486-.922-2.51-3.682zM23.205 7.759c.642-.781 1.08-1.844.959-2.922-.929.04-2.09.625-2.759 1.389-.591.673-1.12 1.776-.983 2.814 1.043.076 2.114-.512 2.783-1.281zM42.816 22.907h-1.667l-.913-2.794h-3.174l-.87 2.794h-1.623l3.145-9.51h1.942l3.16 9.51zm-2.856-3.965l-.825-2.484c-.088-.253-.252-.85-.493-1.791h-.03a67.517 67.517 0 01-.463 1.791l-.811 2.484h2.622zM50.902 19.394c0 1.166-.324 2.088-.971 2.765-.58.602-1.3.903-2.16.903-.927 0-1.594-.324-2-.973h-.029V25.7h-1.565v-7.394c0-.733-.02-1.486-.058-2.257h1.376l.088 1.087h.03c.52-.82 1.313-1.228 2.376-1.228.83 0 1.524.32 2.08.959.556.64.833 1.482.833 2.526zm-1.594.056c0-.668-.154-1.218-.464-1.651-.339-.452-.793-.677-1.362-.677-.386 0-.737.125-1.05.373-.315.25-.52.577-.617.981a1.943 1.943 0 00-.072.465v1.143c0 .499.157.92.471 1.264.314.343.722.515 1.224.515.59 0 1.048-.222 1.377-.663.328-.443.493-1.026.493-1.75zM59.004 19.394c0 1.166-.324 2.088-.972 2.765-.58.602-1.3.903-2.159.903-.928 0-1.594-.324-2-.973h-.029V25.7H52.28v-7.394c0-.733-.02-1.486-.058-2.257h1.377l.087 1.087h.03c.52-.82 1.313-1.228 2.376-1.228.83 0 1.524.32 2.08.959.554.64.833 1.482.833 2.526zm-1.595.056c0-.668-.154-1.218-.464-1.651-.339-.452-.791-.677-1.362-.677-.387 0-.737.125-1.05.373-.315.25-.52.577-.616.981a1.984 1.984 0 00-.073.465v1.143c0 .499.157.92.47 1.264.314.343.722.515 1.226.515.59 0 1.048-.222 1.376-.663.329-.443.493-1.026.493-1.75zM68.061 20.24c0 .809-.288 1.467-.867 1.975-.637.555-1.523.833-2.661.833-1.051 0-1.894-.197-2.532-.593l.363-1.27c.687.405 1.44.608 2.262.608.59 0 1.048-.13 1.378-.389.328-.259.492-.606.492-1.039 0-.386-.135-.71-.406-.975-.27-.263-.72-.508-1.348-.735-1.71-.62-2.565-1.53-2.565-2.727 0-.782.3-1.423.9-1.921.597-.5 1.394-.75 2.391-.75.889 0 1.627.152 2.217.452l-.391 1.242c-.55-.291-1.173-.437-1.87-.437-.55 0-.98.132-1.289.395-.26.235-.391.522-.391.861 0 .376.149.687.448.931.261.226.734.47 1.421.734.84.33 1.458.715 1.855 1.157.396.44.593.99.593 1.648zM73.235 17.193H71.51v3.33c0 .846.304 1.27.914 1.27.28 0 .511-.024.695-.072l.043 1.157c-.308.113-.714.17-1.217.17-.618 0-1.101-.185-1.45-.551-.347-.367-.522-.983-.522-1.849v-3.456h-1.027v-1.144h1.027v-1.255l1.537-.452v1.707h1.725v1.145zM81.018 19.422c0 1.054-.31 1.92-.928 2.596-.648.697-1.508 1.044-2.58 1.044-1.034 0-1.857-.334-2.47-1.001-.614-.668-.921-1.51-.921-2.525 0-1.063.316-1.933.95-2.61.631-.678 1.484-1.016 2.556-1.016 1.034 0 1.865.333 2.493 1.002.6.648.9 1.485.9 2.51zm-1.624.05c0-.633-.138-1.176-.42-1.628-.328-.547-.797-.82-1.404-.82-.63 0-1.107.273-1.435.82-.282.453-.42 1.004-.42 1.656 0 .632.138 1.175.42 1.626.338.548.81.82 1.42.82.598 0 1.067-.278 1.406-.834.288-.46.433-1.009.433-1.64zM86.105 17.39a2.785 2.785 0 00-.494-.043c-.55 0-.976.202-1.275.608-.261.357-.392.809-.392 1.354v3.598H82.38l.015-4.698c0-.79-.02-1.51-.059-2.159H83.7l.057 1.312h.044c.165-.45.425-.814.782-1.086a1.927 1.927 0 011.131-.367c.145 0 .276.01.392.028v1.453zM93.103 19.154c0 .273-.018.503-.057.69h-4.695c.019.678.246 1.196.681 1.554.396.32.908.48 1.536.48.695 0 1.33-.109 1.9-.325l.245 1.057c-.667.283-1.453.424-2.361.424-1.093 0-1.95-.313-2.574-.938-.622-.625-.934-1.465-.934-2.518 0-1.034.29-1.895.87-2.582.608-.733 1.43-1.1 2.463-1.1 1.015 0 1.783.367 2.305 1.1.414.582.621 1.303.621 2.158zm-1.492-.395c.01-.452-.092-.842-.304-1.172-.27-.423-.687-.635-1.247-.635-.511 0-.928.207-1.246.621-.26.33-.415.725-.463 1.185h3.26zM39.443 7.547c0 .84-.26 1.474-.777 1.9-.479.391-1.16.588-2.042.588-.438 0-.812-.019-1.126-.056V5.384c.41-.065.85-.098 1.325-.098.84 0 1.474.178 1.901.534.479.403.719.978.719 1.727zm-.811.02c0-.545-.148-.963-.445-1.254-.296-.291-.73-.437-1.3-.437-.242 0-.448.016-.62.049v3.493c.095.015.268.02.52.02.589 0 1.043-.158 1.363-.477.32-.319.482-.783.482-1.394zM43.743 8.281c0 .518-.151.943-.455 1.276-.319.342-.74.513-1.268.513-.508 0-.912-.164-1.214-.492-.301-.329-.451-.742-.451-1.241 0-.522.154-.95.466-1.282.31-.332.73-.499 1.256-.499.508 0 .916.164 1.225.492.294.319.441.73.441 1.233zm-.797.024c0-.31-.07-.577-.207-.8-.161-.268-.39-.402-.69-.402a.775.775 0 00-.705.403c-.138.222-.206.493-.206.813 0 .31.069.577.206.8.167.268.399.403.698.403.294 0 .524-.137.69-.41.142-.227.214-.496.214-.806zM49.51 6.625l-1.083 3.368h-.704l-.449-1.462a10.72 10.72 0 01-.278-1.089h-.014c-.067.37-.16.733-.278 1.089l-.477 1.462h-.712l-1.018-3.368h.79l.391 1.601c.095.379.173.74.235 1.081h.014c.057-.281.152-.64.286-1.074l.49-1.608h.628L47.8 8.2c.114.384.206.753.278 1.11h.02c.053-.347.132-.717.236-1.11l.42-1.574h.755zM53.498 9.993h-.77V8.064c0-.595-.231-.892-.697-.892a.702.702 0 00-.555.245.856.856 0 00-.214.578v1.998h-.769V7.587c0-.295-.01-.616-.028-.964h.676l.036.527h.021c.09-.164.224-.299.399-.407.208-.125.442-.189.697-.189.323 0 .592.102.806.305.265.25.398.622.398 1.116v2.018zM55.62 9.993h-.77V5.08h.77v4.914zM60.148 8.281c0 .518-.152.943-.456 1.276-.318.342-.741.513-1.267.513-.509 0-.913-.164-1.214-.492-.301-.329-.452-.742-.452-1.241 0-.522.155-.95.466-1.282.311-.332.73-.499 1.256-.499.509 0 .916.164 1.226.492.294.319.441.73.441 1.233zm-.799.024c0-.31-.068-.577-.206-.8-.16-.268-.391-.402-.689-.402a.774.774 0 00-.705.403c-.138.222-.207.493-.207.813 0 .31.07.577.207.8.166.268.398.403.698.403.293 0 .523-.137.689-.41.143-.227.213-.496.213-.806zM63.871 9.993h-.69l-.058-.388h-.021c-.236.31-.573.465-1.01.465-.328 0-.592-.102-.79-.305a.943.943 0 01-.271-.686c0-.412.176-.726.53-.943.354-.217.852-.324 1.492-.319v-.062c0-.444-.239-.666-.718-.666-.342 0-.642.084-.902.25l-.157-.492c.322-.194.719-.29 1.187-.29.905 0 1.358.464 1.358 1.393v1.24c0 .337.017.605.05.803zm-.799-1.157v-.52c-.848-.014-1.272.212-1.272.68 0 .175.048.306.147.394.1.088.226.132.376.132a.79.79 0 00.47-.156.637.637 0 00.28-.53zM68.242 9.993h-.683l-.036-.54h-.021c-.218.411-.59.617-1.111.617-.417 0-.765-.16-1.04-.478-.275-.319-.412-.733-.412-1.24 0-.546.149-.988.448-1.325.29-.314.645-.472 1.068-.472.465 0 .79.153.975.458h.015V5.079h.77v4.007c0 .328.008.63.027.907zm-.797-1.42V8.01a.849.849 0 00-.3-.69.768.768 0 00-.514-.183.796.796 0 00-.677.333c-.164.222-.247.506-.247.852 0 .333.079.604.237.811a.799.799 0 00.672.333.749.749 0 00.608-.277.908.908 0 00.22-.617zM74.82 8.281c0 .518-.151.943-.455 1.276-.319.342-.74.513-1.268.513-.507 0-.911-.164-1.214-.492-.3-.329-.451-.742-.451-1.241 0-.522.155-.95.466-1.282.311-.332.73-.499 1.257-.499.508 0 .916.164 1.225.492.293.319.44.73.44 1.233zm-.796.024c0-.31-.07-.577-.207-.8-.162-.268-.39-.402-.69-.402a.777.777 0 00-.706.403c-.138.222-.206.493-.206.813 0 .31.07.577.206.8.167.268.399.403.698.403.294 0 .525-.137.691-.41a1.49 1.49 0 00.214-.806zM78.957 9.993h-.769V8.064c0-.595-.231-.892-.698-.892a.7.7 0 00-.554.245.852.852 0 00-.214.578v1.998h-.77V7.587c0-.295-.009-.616-.027-.964h.675l.036.527h.021c.09-.164.224-.299.399-.407.21-.125.442-.189.698-.189.322 0 .59.102.804.305.267.25.399.622.399 1.116v2.018zM84.134 7.186h-.847v1.636c0 .416.15.624.448.624.138 0 .253-.011.343-.035l.02.568a1.773 1.773 0 01-.598.084c-.303 0-.54-.09-.71-.27-.173-.18-.258-.483-.258-.909V7.186h-.505v-.561h.505v-.618l.754-.221v.838h.847v.562zM88.207 9.993h-.77V8.078c0-.604-.233-.906-.697-.906-.357 0-.6.175-.734.525a.916.916 0 00-.036.27v2.026H85.2V5.079h.769v2.03h.015c.242-.37.589-.554 1.039-.554.319 0 .582.102.791.306.26.253.392.63.392 1.13v2.002zM92.407 8.15c0 .134-.01.247-.028.34h-2.307c.01.332.12.586.334.762.195.157.447.235.755.235.341 0 .652-.052.933-.159l.12.52c-.328.139-.714.208-1.161.208-.536 0-.958-.153-1.263-.46-.307-.308-.459-.72-.459-1.238 0-.508.142-.93.427-1.268.298-.36.701-.54 1.21-.54.498 0 .876.18 1.131.54.206.286.308.64.308 1.06zm-.734-.194a.987.987 0 00-.149-.575c-.133-.208-.337-.313-.612-.313a.737.737 0 00-.612.306 1.117 1.117 0 00-.228.582h1.601z" fill="#fff"/></svg><svg fill="none" viewBox="0 0 21 21" id="busket" xmlns="http://www.w3.org/2000/svg"><path clip-rule="evenodd" d="M5.617 17.82a.766.766 0 010 1.53.764.764 0 110-1.53zM16.869 17.82a.766.766 0 11-.001 1.532.766.766 0 01.001-1.532z" stroke="#222" stroke-width="1.5" stroke-linecap="round" stroke-linejoin="round"/><path d="M.944 1.25l2.08.36.963 11.473a1.802 1.802 0 001.797 1.653h10.912c.896 0 1.656-.658 1.785-1.546l.95-6.558a1.34 1.34 0 00-1.328-1.533H3.358M12.32 8.797h2.773" stroke="#222" stroke-width="1.5" stroke-linecap="round" stroke-linejoin="round"/></svg><svg fill="none" viewBox="0 0 41 41" id="delivery-man" xmlns="http://www.w3.org/2000/svg"><g clip-path="url(#cclip0_32_215)"><path d="M38.347 13.235h-6.783c-1.17 0-2.123.953-2.123 2.124v7.808h-2.537c.14-.513.193-1.118.159-1.821-.055-2.974-.595-5.48-1.604-7.448-.784-1.53-1.698-2.446-2.483-2.994.921-.947 1.454-2.294 1.454-3.847 0-2.796-2.23-5.07-4.971-5.07s-4.971 2.274-4.971 5.07c0 .323.262.586.586.586h.398a4.069 4.069 0 003.213 4.66c-.195.725-.292 1.579-.292 2.55l-1.461 1.256-3.556.288-4.102-1.356c-.376-.125-.802-.267-1.172 0-.364.263-.364.723-.364.874v3.05c0 .324.262.586.586.586h.697l-1.07 3.697a.586.586 0 001.126.326l1.165-4.023h1.665c-2.072 6.318-.89 10.535.928 14.803H11.78L7.394 29.45l.928-3.204a.586.586 0 10-1.126-.326l-.887 3.065a5.894 5.894 0 00-5.824 4.569.586.586 0 00.44.702l.831.191a4.492 4.492 0 004.471 4.916c.832 0 1.649-.233 2.371-.686a4.454 4.454 0 001.822-2.236l.656.15c.196.046.381.07.567-.03a.673.673 0 00.33-.45c.041-.192.072-.387.094-.584h12.255c.392 2.437 2.465 4.273 4.94 4.273 2.476 0 4.55-1.836 4.941-4.273h.448l.109.001c.167 0 .41-.018.608-.22a.75.75 0 00.207-.57 6.645 6.645 0 00-.24-1.587c.467-2.834.018-4.56-.648-5.91.421-.276.7-.751.7-1.291v-1.61h2.96c1.17 0 2.123-.953 2.123-2.125V15.36a2.126 2.126 0 00-2.123-2.124zM7.977 37.683c-.751.47-1.639.62-2.5.421a3.32 3.32 0 01-2.567-3.391l6.356 1.462a3.293 3.293 0 01-1.29 1.508zm2.93-2.333l-9.114-2.098a4.719 4.719 0 014.666-3.091l4.465 4.992a4.73 4.73 0 01-.016.197zm8.851-10.21c-.17.448-.17 1-.17 1.766v2.212h-2.145v-3.034c0-3.43 1.871-4.04 2.711-4.142H25.9c-.023.779-.199 1.332-.532 1.683-.389.41-1.054.609-2.033.61l-2.103.002c-.75 0-1.246.304-1.473.902zm-.17 5.15v1.398H15.41c.047-.434.182-.77.404-1.002.33-.345.795-.397 1.043-.397h2.731zm6.285-9.52h-5.329a21.913 21.913 0 01-.561-2.168l1.62-1.051c.884-.575 1.344-1.386 1.262-2.227a2.071 2.071 0 00-1.29-1.696c-.65-.26-1.35-.178-1.967.217.05-.56.146-1.06.283-1.486.25-.025.498-.074.741-.146A4.857 4.857 0 0022 11.671c1.128.674 3.61 2.861 3.873 9.1zm-10.17-14.3c.276-1.871 1.855-3.31 3.756-3.31 2.095 0 3.799 1.748 3.799 3.897 0 1.748-.838 3.157-2.19 3.777V7.75c0-.534-.204-1.19-1.177-1.278a.576.576 0 00-.053-.002h-4.135zm.885 1.848c0-.231.026-.457.078-.675h3.143a.908.908 0 01.081.012.705.705 0 01.006.096v3.427c-.14.02-.28.031-.42.031h-.004a2.892 2.892 0 01-2.884-2.891zm-.76 9.056l1.388-.112a.586.586 0 00.335-.14l2.505-2.154c.242-.21.5-.316.753-.316.112 0 .222.021.33.064.31.124.53.407.56.722.038.396-.222.797-.734 1.13l-2.791 1.811h-2.346v-1.005zm-2.476.2l1.304-.105v.91h-1.515c-.197 0-.245-.163-.25-.3-.004-.078.004-.467.461-.505zm-1.387-.404a1.714 1.714 0 00-.216 1.204v.005H8.91v-2.224l3.057 1.01c0 .002 0 .004-.002.005zm1.179 2.381h5.203a.585.585 0 00.32-.094l.264-.173c.128.564.273 1.113.431 1.631-1.194.353-3.091 1.493-3.091 5.169v3.092a2.446 2.446 0 00-1.305.7c-.428.45-.673 1.057-.732 1.812h-1.182c-1.191-3.432-1.644-7.085.092-12.137zm.966 14.802a47.193 47.193 0 01-.622-1.493h6.084c.788 0 1.188-.359 1.188-1.067v-4.3h4.625a.586.586 0 000-1.173h-4.62c.007-.332.028-.605.09-.765.029-.079.054-.146.376-.146l2.104-.002c1.317-.002 2.26-.32 2.881-.975.03-.03.056-.062.084-.094H34.215v1.61c0 .202-.17.372-.37.372h-5.833a.586.586 0 100 1.172H33.5c.464.86.88 1.93.855 3.62a6.337 6.337 0 00-5.165-2.646 6.31 6.31 0 00-4.52 1.89 6.454 6.454 0 00-1.842 3.998l-8.718-.002zm15.153 4.275c-1.832 0-3.377-1.32-3.75-3.102h7.5c-.374 1.782-1.919 3.102-3.75 3.102zm4.416-4.273H24.005c.288-2.65 2.503-4.717 5.185-4.717 2.354 0 4.331 1.552 4.986 3.725a5.4 5.4 0 01.2.991h-.697zm5.619-12.14a.953.953 0 01-.951.952h-7.734V20.14h8.685v2.073zm0-3.246h-8.685v-1.246h8.685v1.246zm0-2.418h-8.685v-1.192c0-.525.426-.952.95-.952h6.784c.524 0 .95.427.95.952v1.192z" fill="#09A66D"/></g><defs><clipPath id="cclip0_32_215"><path fill="#fff" transform="translate(.47 .893)" d="M0 0h40v40H0z"/></clipPath></defs></svg><svg fill="none" viewBox="0 0 38 38" id="earth" xmlns="http://www.w3.org/2000/svg"><path d="M37.424 19.217c0-10.178-8.229-18.43-18.38-18.43C8.892.788.664 9.04.664 19.218c0 10.178 8.228 18.43 18.38 18.43 10.151 0 18.38-8.252 18.38-18.43z" fill="#89C8FD"/><path d="M19.044.788c-.944 0-1.87.07-2.776.209 8.834 1.341 15.605 8.988 15.605 18.22s-6.77 16.879-15.605 18.22c.905.138 1.832.21 2.776.21 10.151 0 18.38-8.252 18.38-18.43 0-10.178-8.229-18.43-18.38-18.43z" fill="#60B6FF"/><path d="M16.654 7.95c-2.831 1.774-4.955 4.613-3.362 7.807s5.132 1.952 8.406 1.508c3.274-.443.796 9.67 2.743 12.154 1.947 2.484 7.432-2.484 6.902-5.678-.786-4.728-1.062-6.387 5.309-9.758l.017-.007C34.52 6.705 28.02 1.31 20.195.825l-.001.027s-.708 5.324-3.54 7.098z" fill="#BAEB6C"/><path d="M30.56 4.854l.004.003c-.002 0-.003-.002-.004-.003zM32.807 7.004h.001zM6.833 27.556c-.85-1.296 1.504-4.347 2.035-6.653.531-2.307-2.655-2.13-3.628-2.928-.973-.799-2.3-4.258-3.274-5.057l-.155-.123c-.742 2-1.148 4.164-1.148 6.422a18.417 18.417 0 007.491 14.847l.006-.386s.708-3.016-1.327-6.122zM31.343 23.741l-.012-.068a18.32 18.32 0 01-1.527 4.045c1.046-1.234 1.744-2.738 1.539-3.977z" fill="#BAEB6C"/><path d="M20.195.825l-.001.027s-.06.445-.211 1.119c6.445 2.44 11.164 8.406 11.814 15.553.812-1.11 2.297-2.188 4.855-3.541l.017-.007C34.522 6.705 28.02 1.31 20.195.825z" fill="#96D629"/></svg><svg fill="none" viewBox="0 0 25 25" id="facebook" xmlns="http://www.w3.org/2000/svg"><g clip-path="url(#eclip0_32_97)"><path d="M13.6 9.04v-3a1.5 1.5 0 011.5-1.5h1.5V.79h-3a4.5 4.5 0 00-4.5 4.5v3.75h-3v3.75h3v12h4.5v-12h3l1.5-3.75h-4.5z" fill="#222"/></g><defs><clipPath id="eclip0_32_97"><path fill="#fff" transform="translate(.1 .79)" d="M0 0h24v24H0z"/></clipPath></defs></svg><svg fill="none" viewBox="0 0 41 41" id="fast-time" xmlns="http://www.w3.org/2000/svg"><g clip-path="url(#fclip0_32_225)" fill="#09A66D"><path d="M3.507 12.55h6.18a.586.586 0 000-1.171h-6.18a.586.586 0 100 1.171zM9.475 15.371H7.033a.586.586 0 100 1.172h2.442a.586.586 0 100-1.172zM1.056 19.435h5.977a.586.586 0 100-1.172H1.056a.586.586 0 100 1.172zM10.272 29.822a.586.586 0 00-.586-.586h-6.18a.586.586 0 000 1.172h6.18a.586.586 0 00.586-.586zM9.475 25.244H7.033a.586.586 0 100 1.172h2.442a.586.586 0 100-1.172zM7.62 22.938a.586.586 0 00-.587-.586H1.056a.586.586 0 000 1.172h5.977a.586.586 0 00.586-.586zM25.433 13.849a.586.586 0 00.586-.586v-.894a.586.586 0 10-1.172 0v.894c0 .324.262.586.586.586zM31.875 14.451a.586.586 0 00-.828 0l-.633.633a.586.586 0 00.83.828l.631-.632a.586.586 0 000-.829zM33.063 20.308a.586.586 0 100 1.171h.894a.586.586 0 100-1.171h-.894zM31.243 25.875a.586.586 0 00-.829.828l.633.633a.586.586 0 00.828-.829l-.632-.632zM24.847 28.524v.894a.586.586 0 001.172 0v-.894a.586.586 0 10-1.172 0zM19.623 25.875l-.632.632a.586.586 0 00.828.829l.633-.633a.586.586 0 00-.829-.828zM16.908 20.308a.586.586 0 100 1.171h.894a.586.586 0 000-1.171h-.894zM20.452 15.084l-.633-.633a.586.586 0 00-.828.829l.632.632a.586.586 0 10.829-.829zM28.584 20.893a.586.586 0 00-.586-.585h-1.98v-4.35a.586.586 0 10-1.171 0v4.935c0 .324.262.586.586.586h2.565a.586.586 0 00.586-.585z"/><path d="M36.543 20.797a.586.586 0 00.55-.62c-.373-6.15-5.495-10.966-11.66-10.966-6.442 0-11.682 5.24-11.682 11.682s5.24 11.683 11.682 11.683c5.77 0 10.695-4.229 11.552-9.934a.586.586 0 00-1.16-.174c-.769 5.126-5.195 8.936-10.392 8.936-5.796 0-10.51-4.715-10.51-10.51 0-5.796 4.714-10.51 10.51-10.51 5.547 0 10.154 4.332 10.49 9.863.02.323.297.569.62.55z"/><path d="M25.433 5.857c-2.06 0-4.08.427-5.939 1.227H9.156a.586.586 0 100 1.172h8.134a15.02 15.02 0 00-3.005 2.547.586.586 0 00.869.786 13.895 13.895 0 0110.28-4.56c7.644 0 13.864 6.22 13.864 13.864 0 7.645-6.22 13.865-13.865 13.865-7.645 0-13.865-6.22-13.865-13.865 0-2.677.765-5.275 2.212-7.514a.586.586 0 10-.984-.636 14.982 14.982 0 00-2.4 8.15c0 5.295 2.75 9.958 6.898 12.638H9.156a.586.586 0 100 1.172h10.33a14.95 14.95 0 005.947 1.227c8.292 0 15.037-6.745 15.037-15.037 0-8.29-6.745-15.036-15.037-15.036z"/></g><defs><clipPath id="fclip0_32_225"><path fill="#fff" transform="translate(.47 .893)" d="M0 0h40v40H0z"/></clipPath></defs></svg><svg fill="none" viewBox="0 0 105 31" id="google-play" xmlns="http://www.w3.org/2000/svg"><path d="M100.964.047H4.667C2.54.047.815 1.727.815 3.797v22.5c0 2.071 1.725 3.75 3.852 3.75h96.297c2.127 0 3.851-1.679 3.851-3.75v-22.5c0-2.071-1.724-3.75-3.851-3.75z" fill="#000"/><path d="M100.964.647c.858 0 1.681.332 2.287.923.607.59.948 1.392.948 2.227v22.5c0 .836-.341 1.637-.948 2.227a3.278 3.278 0 01-2.287.923H4.667a3.28 3.28 0 01-2.288-.922 3.108 3.108 0 01-.947-2.228v-22.5c0-.835.34-1.637.947-2.227A3.28 3.28 0 014.667.647h96.297zm0-.6H4.667a3.906 3.906 0 00-2.723 1.098A3.7 3.7 0 00.815 3.797v22.5a3.7 3.7 0 001.129 2.652 3.906 3.906 0 002.723 1.098h96.297a3.905 3.905 0 002.723-1.098 3.698 3.698 0 001.128-2.652v-22.5c0-.994-.405-1.948-1.128-2.652a3.904 3.904 0 00-2.723-1.098z" fill="#A6A6A6"/><path d="M53.308 16.36a3.337 3.337 0 00-1.814.544c-.537.352-.954.851-1.2 1.434a3.11 3.11 0 00-.18 1.84c.129.617.442 1.184.9 1.628a3.304 3.304 0 001.677.868 3.357 3.357 0 001.89-.183 3.257 3.257 0 001.466-1.174c.36-.524.55-1.14.55-1.77a3.07 3.07 0 00-.237-1.23 3.137 3.137 0 00-.713-1.043 3.235 3.235 0 00-1.074-.688 3.304 3.304 0 00-1.265-.226zm0 5.122a2.031 2.031 0 01-1.139-.258 1.955 1.955 0 01-.793-.838 1.89 1.89 0 01.339-2.152 2 2 0 011.013-.569 2.038 2.038 0 011.167.085c.371.142.69.389.915.71.225.32.346.699.347 1.087a1.8 1.8 0 01-.112.723c-.087.232-.22.444-.393.624-.172.18-.38.326-.61.427-.232.1-.48.155-.734.161zm-7.172-5.122c-.647.001-1.28.19-1.817.54-.537.352-.956.85-1.202 1.433a3.11 3.11 0 00-.183 1.84c.127.619.44 1.186.898 1.63a3.302 3.302 0 001.676.871 3.357 3.357 0 001.89-.183 3.256 3.256 0 001.469-1.174c.36-.524.551-1.14.551-1.77a3.07 3.07 0 00-.238-1.23 3.138 3.138 0 00-.712-1.043 3.236 3.236 0 00-1.074-.688 3.305 3.305 0 00-1.265-.226h.007zm0 5.122a2.031 2.031 0 01-1.14-.254 1.957 1.957 0 01-.797-.836 1.89 1.89 0 01.333-2.154 2 2 0 011.013-.572 2.04 2.04 0 011.168.084c.371.141.691.388.917.709.225.32.346.7.347 1.088a1.802 1.802 0 01-.505 1.347c-.172.18-.38.326-.61.427-.231.1-.48.155-.733.161h.007zm-8.543-4.14v1.35h3.328a2.792 2.792 0 01-.77 1.703c-.334.33-.734.588-1.176.759-.441.17-.915.25-1.39.23a3.75 3.75 0 01-2.615-1.054 3.553 3.553 0 01-1.083-2.545c0-.955.39-1.87 1.083-2.546a3.75 3.75 0 012.615-1.054 3.596 3.596 0 012.52.967l.978-.952c-.456-.45-1-.805-1.6-1.046a4.959 4.959 0 00-1.89-.357 5.22 5.22 0 00-2.009.32 5.113 5.113 0 00-1.72 1.061 4.956 4.956 0 00-1.154 1.631 4.843 4.843 0 000 3.884 4.958 4.958 0 001.155 1.631 5.114 5.114 0 001.72 1.06c.64.238 1.323.347 2.008.32.66.03 1.317-.08 1.93-.318a4.633 4.633 0 001.621-1.069 4.43 4.43 0 001.202-3.165 4.29 4.29 0 00-.077-.847l-4.676.037zm34.905 1.05a3.006 3.006 0 00-1.077-1.44 3.136 3.136 0 00-1.727-.592c-.421-.001-.838.082-1.225.245-.387.162-.736.4-1.025.699a2.988 2.988 0 00-.654 1.038 2.928 2.928 0 00-.177 1.205c-.01.42.068.836.228 1.226.16.389.398.743.702 1.04.303.298.665.533 1.064.691a3.28 3.28 0 001.257.23 3.33 3.33 0 001.546-.37 3.23 3.23 0 001.18-1.04l-1.116-.75a1.85 1.85 0 01-.685.65 1.911 1.911 0 01-.925.236 1.7 1.7 0 01-.947-.246 1.634 1.634 0 01-.64-.722l4.383-1.762-.162-.338zm-4.468 1.065a1.703 1.703 0 01.095-.684c.078-.22.2-.422.359-.596.16-.173.352-.313.568-.413.216-.1.45-.156.688-.167a1.3 1.3 0 01.713.16c.216.12.392.299.505.515l-2.928 1.185zm-3.559 3.09h1.44v-9.375h-1.44v9.375zm-2.357-5.475h-.054a2.31 2.31 0 00-.78-.554 2.365 2.365 0 00-.946-.196 3.322 3.322 0 00-2.217.988 3.15 3.15 0 00-.906 2.204c0 .82.325 1.61.906 2.203a3.321 3.321 0 002.217.988c.327.005.65-.06.948-.189.299-.13.564-.321.778-.561h.046v.457c0 1.223-.67 1.875-1.749 1.875a1.844 1.844 0 01-1.001-.322 1.77 1.77 0 01-.647-.81l-1.256.51c.236.56.64 1.038 1.157 1.373a3.18 3.18 0 001.747.51c1.687 0 3.082-.968 3.082-3.323v-5.678h-1.325v.525zm-1.649 4.41a2.015 2.015 0 01-1.296-.623 1.914 1.914 0 01-.524-1.312c0-.486.187-.954.524-1.312.337-.358.8-.58 1.296-.623.246.013.488.073.71.177.222.105.42.252.584.432a1.756 1.756 0 01.455 1.326 1.74 1.74 0 01-.453 1.334 1.83 1.83 0 01-.589.43 1.875 1.875 0 01-.715.171h.008zm18.782-8.31h-3.444v9.375h1.44v-3.555h2.011c.411.029.823-.025 1.212-.158a3.013 3.013 0 001.045-.616c.301-.273.541-.604.706-.971a2.851 2.851 0 000-2.33 2.92 2.92 0 00-.706-.97 3.013 3.013 0 00-1.045-.616 3.071 3.071 0 00-1.212-.159h-.007zm0 4.5h-2.01v-3.195h2.04c.439 0 .86.17 1.169.471.31.302.484.711.484 1.138 0 .427-.174.836-.484 1.138-.31.301-.73.47-1.168.47l-.031-.022zm8.882-1.35a2.756 2.756 0 00-1.502.344 2.657 2.657 0 00-1.063 1.089l1.279.517c.126-.226.317-.412.55-.534.232-.123.496-.177.76-.156a1.424 1.424 0 011.03.29 1.325 1.325 0 01.51.918v.097a3.252 3.252 0 00-1.502-.36c-1.38 0-2.774.75-2.774 2.108.014.29.087.573.215.834.129.262.31.496.532.688a2.282 2.282 0 001.642.54c.362.026.725-.045 1.05-.203.326-.158.602-.399.799-.697h.046v.75h1.386V18.94c0-1.643-1.279-2.595-2.92-2.595l-.038-.023zm-.177 5.138c-.47 0-1.125-.233-1.125-.795 0-.75.817-.998 1.541-.998.458-.01.91.098 1.31.315a1.68 1.68 0 01-.556 1.057c-.31.276-.712.433-1.132.443l-.038-.022zm8.189-4.913l-1.649 4.065h-.046l-1.71-4.065h-1.54l2.564 5.685-1.463 3.158h1.502l3.944-8.843h-1.602zm-12.95 6h1.44v-9.375h-1.44v9.375zM37.298 7.774c.013.275-.031.55-.13.808-.1.258-.252.493-.447.692a2.245 2.245 0 01-.775.51 2.296 2.296 0 01-.92.158 2.473 2.473 0 01-1.34-.405 2.376 2.376 0 01-.885-1.059 2.305 2.305 0 01-.137-1.359c.093-.456.323-.875.66-1.205.22-.22.486-.393.779-.51.292-.115.607-.172.923-.165.325-.001.648.063.947.188.279.109.527.281.724.502l-.408.398a1.538 1.538 0 00-.567-.412 1.578 1.578 0 00-.696-.121 1.83 1.83 0 00-.701.136 1.79 1.79 0 00-.59.392 1.736 1.736 0 00-.386.586 1.698 1.698 0 00-.118.686c-.005.35.096.693.291.986.195.294.475.525.805.663.33.14.694.18 1.047.117.354-.062.68-.225.938-.468.237-.25.374-.575.385-.915h-1.671v-.54h2.241c.021.11.031.224.031.337zm3.529-1.875h-2.08v1.425h1.895v.54h-1.895v1.425h2.08v.555H38.13v-4.5h2.697v.555zm2.526 3.945h-.593V5.899h-1.294v-.555h3.212v.555h-1.325v3.945zm3.59 0v-4.5h.593v4.5h-.593zm3.228 0h-.593V5.899h-1.294v-.555h3.174v.555H50.17v3.945zm7.303-.585c-.45.436-1.06.68-1.694.68a2.437 2.437 0 01-1.695-.68 2.396 2.396 0 01-.682-1.669c0-.62.244-1.217.682-1.668.222-.218.486-.391.777-.509a2.444 2.444 0 012.612.509c.44.45.685 1.047.685 1.668s-.245 1.219-.685 1.669zm-2.95-.375c.333.323.785.505 1.255.505.471 0 .923-.182 1.256-.505.33-.353.512-.813.512-1.29 0-.477-.183-.937-.512-1.29a1.804 1.804 0 00-1.255-.505c-.471 0-.923.182-1.256.505-.33.353-.512.813-.512 1.29 0 .477.183.937.512 1.29zm4.468.96v-4.5h.724l2.25 3.503V5.344h.593v4.5h-.616l-2.35-3.667v3.667h-.601z" fill="#fff"/><path fill-rule="evenodd" clip-rule="evenodd" d="M55.78 5.31c-.305 0-.607.058-.889.172a2.316 2.316 0 00-.751.492 2.322 2.322 0 00-.66 1.616c0 .601.236 1.18.66 1.617a2.359 2.359 0 001.64.658 2.36 2.36 0 001.64-.658 2.315 2.315 0 00.662-1.617c0-.601-.237-1.18-.663-1.616a2.315 2.315 0 00-.751-.492 2.366 2.366 0 00-.889-.172zm-.948.034a2.523 2.523 0 012.697.525h.001c.453.465.706 1.08.706 1.721 0 .64-.253 1.257-.706 1.72l-.001.002a2.516 2.516 0 01-1.75.703 2.515 2.515 0 01-1.749-.703l-.001-.001a2.47 2.47 0 01-.703-1.72c0-.64.251-1.256.703-1.721l.001-.001a2.47 2.47 0 01.802-.525zm-19.808-.03a2.288 2.288 0 00-.892.16c-.283.112-.54.28-.754.492-.326.32-.548.726-.638 1.168-.09.442-.044.9.132 1.316a2.3 2.3 0 00.858 1.025c.383.252.834.388 1.296.392h.002c.305.01.607-.042.89-.153.281-.111.536-.279.747-.492a1.95 1.95 0 00.43-.667 1.91 1.91 0 00.126-.778l.077-.003h-.077c0-.088-.006-.176-.019-.262h-2.1v.39h1.675l-.003.077c-.012.358-.156.7-.405.963l-.003.004a1.942 1.942 0 01-2.07.367 1.883 1.883 0 01-.838-.692 1.81 1.81 0 01-.304-1.026 1.772 1.772 0 01.123-.714 1.81 1.81 0 01.402-.611c.175-.176.385-.315.616-.41.23-.094.479-.142.729-.141.25-.013.499.03.728.127.205.087.389.213.54.371l.3-.29a1.83 1.83 0 00-.648-.43l-.001-.002a2.365 2.365 0 00-.917-.181h-.002zm2.351 2.458c.014.285-.032.57-.135.836a2.1 2.1 0 01-.464.718 2.324 2.324 0 01-.8.527 2.375 2.375 0 01-.952.164 2.551 2.551 0 01-1.38-.418 2.453 2.453 0 01-.915-1.092 2.378 2.378 0 01-.14-1.402c.096-.47.332-.903.68-1.244.228-.227.502-.406.805-.526.302-.12.626-.178.953-.171.335 0 .667.065.976.193.29.114.547.293.753.523l.047.053-.519.504-.054-.062a1.462 1.462 0 00-.539-.39 1.499 1.499 0 00-.661-.116h-.005a1.75 1.75 0 00-.67.13 1.713 1.713 0 00-.565.375 1.66 1.66 0 00-.369.56c-.083.21-.121.433-.113.657v.004c-.005.335.092.664.279.945.187.28.455.502.77.635.316.133.665.171 1.004.111.337-.06.65-.215.896-.447.206-.217.331-.494.358-.787H34.95v-.69h2.383l.011.061c.022.115.032.232.032.35zm.678-2.503h2.85v.705h-2.08v1.275h1.896v.69h-1.895v1.275h2.08v.705h-2.85v-4.65zm.154.15v4.35h2.543v-.405h-2.08V7.789h1.895v-.39H38.67V5.824h2.08v-.405h-2.543zm3.182-.15h3.366v.705H43.43v3.945h-.747V5.974H41.39v-.705zm.154.15v.405h1.294v3.945h.44V5.824H44.6v-.405h-3.058zm5.323-.15h.748v4.65h-.748v-4.65zm.154.15v4.35h.44v-4.35h-.44zm1.187-.15h3.328v.705h-1.287v3.945h-.747V5.974h-1.294v-.705zm.154.15v.405h1.294v3.945h.44V5.824h1.286v-.405h-3.02zm10.554-.15h.844l2.13 3.316V5.27h.747v4.65H61.9l-2.23-3.48v3.48h-.755v-4.65zm.154.15v4.35h.447V5.915l2.47 3.854h.496v-4.35h-.44v3.689l-2.369-3.689h-.604zm-4.6.832c.348-.337.82-.527 1.31-.527.492 0 .963.19 1.31.527l.003.003c.342.367.532.844.532 1.34 0 .496-.19.973-.532 1.34l-.002.003a1.882 1.882 0 01-1.31.527c-.492 0-.963-.19-1.31-.527l.054-.053-.057.05a1.966 1.966 0 01-.532-1.34c0-.496.19-.973.532-1.34l.002-.003zm.11 2.581c.32.309.75.482 1.2.482.45 0 .881-.173 1.2-.482.316-.339.49-.78.49-1.238 0-.458-.174-.899-.49-1.238a1.727 1.727 0 00-1.2-.482c-.45 0-.88.173-1.2.482-.315.34-.49.78-.49 1.238 0 .458.175.899.49 1.238z" fill="#fff"/><path d="M8.858 5.702a1.474 1.474 0 00-.354 1.05v16.59c-.024.381.103.757.354 1.05l.054.053 9.545-9.285v-.218L8.912 5.65l-.054.052z" fill="url(#gpaint0_linear_32_320)"/><path d="M21.615 18.257l-3.158-3.097v-.218l3.158-3.105.07.038 3.782 2.092c1.079.593 1.079 1.568 0 2.168L21.7 18.22l-.085.037z" fill="url(#gpaint1_linear_32_320)"/><path d="M21.708 18.212l-3.251-3.165-9.599 9.345a1.278 1.278 0 001.602.045l11.255-6.225" fill="url(#gpaint2_linear_32_320)"/><path d="M21.708 11.882L10.453 5.657a1.278 1.278 0 00-1.603.045l9.607 9.345 3.25-3.165z" fill="url(#gpaint3_linear_32_320)"/><path opacity=".2" d="M21.615 18.145l-11.162 6.187a1.31 1.31 0 01-1.541 0l-.054.053.054.052a1.302 1.302 0 001.54 0l11.256-6.225-.093-.067z" fill="#000"/><path opacity=".12" d="M8.858 24.287a1.474 1.474 0 01-.354-1.05v.113c-.024.38.103.756.354 1.05l.054-.053-.054-.06zm16.61-8.265l-3.853 2.123.07.067 3.782-2.085c.215-.098.4-.25.534-.44.136-.189.217-.41.237-.64a1.378 1.378 0 01-.27.575c-.133.169-.304.306-.5.4z" fill="#000"/><path opacity=".25" d="M10.453 5.762l15.014 8.31c.197.094.368.231.502.4.133.17.225.366.268.575a1.292 1.292 0 00-.236-.64 1.34 1.34 0 00-.534-.44l-15.014-8.31c-1.079-.593-1.957-.098-1.957 1.102v.113c.023-1.208.886-1.703 1.957-1.11z" fill="#fff"/><defs><linearGradient id="gpaint0_linear_32_320" x1="17.61" y1="6.58" x2="5.029" y2="19.502" gradientUnits="userSpaceOnUse"><stop stop-color="#00A0FF"/><stop offset=".01" stop-color="#00A1FF"/><stop offset=".26" stop-color="#00BEFF"/><stop offset=".51" stop-color="#00D2FF"/><stop offset=".76" stop-color="#00DFFF"/><stop offset="1" stop-color="#00E3FF"/></linearGradient><linearGradient id="gpaint1_linear_32_320" x1="26.877" y1="15.047" x2="8.242" y2="15.047" gradientUnits="userSpaceOnUse"><stop stop-color="#FFE000"/><stop offset=".41" stop-color="#FFBD00"/><stop offset=".78" stop-color="orange"/><stop offset="1" stop-color="#FF9C00"/></linearGradient><linearGradient id="gpaint2_linear_32_320" x1="19.944" y1="16.772" x2="2.88" y2="34.292" gradientUnits="userSpaceOnUse"><stop stop-color="#FF3A44"/><stop offset="1" stop-color="#C31162"/></linearGradient><linearGradient id="gpaint3_linear_32_320" x1="6.439" y1=".182" x2="14.056" y2="8.006" gradientUnits="userSpaceOnUse"><stop stop-color="#32A071"/><stop offset=".07" stop-color="#2DA771"/><stop offset=".48" stop-color="#15CF74"/><stop offset=".8" stop-color="#06E775"/><stop offset="1" stop-color="#00F076"/></linearGradient></defs></svg><svg fill="none" viewBox="0 0 24 24" id="half-star" xmlns="http://www.w3.org/2000/svg"><g clip-path="url(#hclip0_32_281)"><path d="M12.425 15.404l4.097 2.293-.916-4.604 3.447-3.188-4.662-.553-1.966-4.263v10.315zm0 2.211L5.62 21.424l1.52-7.648-5.726-5.294 7.743-.919 3.267-7.08 3.266 7.08 7.744.919-5.726 5.294 1.52 7.648-6.804-3.809z" fill="#F1B90B"/></g><defs><clipPath id="hclip0_32_281"><path fill="#fff" transform="translate(.848)" d="M0 0h23.152v23.152H0z"/></clipPath></defs></svg><svg fill="none" viewBox="0 0 32 32" id="harvest" xmlns="http://www.w3.org/2000/svg"><path d="M22.472 10h1.45c1.207 0 2.217-.86 2.45-2h-1.45c-1.207 0-2.217.86-2.45 2zM11 5.5c.05 0 .098.006.147.008l.351-3.51c.002-.295-.201-.498-.45-.498h-.095a.453.453 0 00-.453.452l.354 3.556c.049-.002.097-.008.146-.008zM7 16c0-.17.018-.337.045-.5H6v.342c.375.179.713.42 1 .713V16zM6.595 3.778l1.71 2.518c.135-.086.273-.166.416-.24L7.692 3.228a.548.548 0 00-.765-.311l-.125.062a.548.548 0 00-.207.8zM8.691 14.5h5.569l.656-3.148c.056-.268.084-.543.084-.816C15 8.294 13.206 6.5 11 6.5s-4 1.794-4 4c0 .31.029.584.084.852l.578 2.773A2.993 2.993 0 0110 13v1c-.502 0-.957.193-1.309.5zm3.809-6h1v1h-1v-1zm0 2h1v1h-1v-1zm0 2h1v1h-1v-1zM5.5 18.5h1.45a2.504 2.504 0 00-2.45-2H3.05c.233 1.14 1.243 2 2.45 2zM15.405 3.777a.548.548 0 00-.209-.798l-.124-.063a.546.546 0 00-.736.245.613.613 0 00-.029.066L13.28 6.055c.143.074.281.154.415.24l1.711-2.518zM14.492 24.5H28.5v-3H13.826c.442.928.666 1.949.666 3zm12.008-2h1v1h-1v-1zM13.232 28.5H27c.827 0 1.5-.673 1.5-1.5v-1.5H14.428a6.95 6.95 0 01-1.196 3zm13.268-2h1v1h-1v-1zM8.071 15.5A1.97 1.97 0 008 16v.5h22.5v-1H8.071zM8 18.933c.1-.024.201-.05.293-.089a3.883 3.883 0 014.413.977c.194.215.367.444.531.678H28.5v-3H8v1.434zm18.5-.433h1v1h-1v-1z" fill="#09A66D"/><path d="M11.963 20.49a2.918 2.918 0 00-3.277-.727 2.94 2.94 0 01-.686.193v.942c.496-.185.968-.575 1.147-.753l.707.708C9.736 20.971 8.674 22 7.5 22c-1.173 0-2.237-1.03-2.354-1.147l.707-.708c.179.178.65.567 1.147.753V19.5H5.5c-.17 0-.335-.016-.497-.04-.702.05-1.442.442-1.989 1.055A5.99 5.99 0 001.5 24.5c0 1.646.654 3.182 1.84 4.324a5.96 5.96 0 004.399 1.671c3.09-.12 5.619-2.633 5.756-5.723a5.976 5.976 0 00-1.532-4.282zM7.5 29.5c-2.757 0-5-2.243-5-5h1c0 2.205 1.795 4 4 4v1zM26.385 14.5a5.97 5.97 0 00-1.344-2.51 2.92 2.92 0 00-3.277-.726 2.85 2.85 0 01-.264.095V7c0-.827.673-1.5 1.5-1.5h.5v-1H23A2.503 2.503 0 0020.5 7v4.359a2.85 2.85 0 01-.264-.095 2.92 2.92 0 00-3.277.726 5.966 5.966 0 00-1.345 2.51h10.771zm-7.632-2.431c.008.004.765.431 2.247.431 1.482 0 2.239-.427 2.246-.431l.51.86c-.038.023-.972.571-2.756.571-1.785 0-2.719-.548-2.758-.572l.511-.859z" fill="#09A66D"/></svg><svg fill="none" viewBox="0 0 25 25" id="instagram" xmlns="http://www.w3.org/2000/svg"><g clip-path="url(#jclip0_32_105)" fill="#222"><path d="M24.077 7.846c-.056-1.276-.262-2.152-.558-2.912a5.857 5.857 0 00-1.387-2.128 5.905 5.905 0 00-2.124-1.384c-.764-.295-1.637-.501-2.912-.557C15.812.804 15.404.79 12.146.79c-3.26 0-3.667.014-4.947.07-1.275.056-2.152.263-2.911.558a5.856 5.856 0 00-2.13 1.388A5.909 5.909 0 00.777 4.929C.48 5.694.274 6.566.218 7.841.157 9.126.143 9.533.143 12.79c0 3.26.014 3.667.07 4.947.056 1.275.263 2.152.558 2.912a5.918 5.918 0 001.388 2.128c.6.61 1.327 1.083 2.124 1.383.764.296 1.636.502 2.911.558 1.28.057 1.688.07 4.947.07 3.258 0 3.666-.013 4.946-.07 1.275-.056 2.152-.262 2.911-.558a6.139 6.139 0 003.512-3.511c.295-.764.502-1.637.558-2.912.056-1.28.07-1.688.07-4.946 0-3.259-.005-3.666-.06-4.946zm-2.161 9.798c-.052 1.173-.249 1.805-.413 2.227a3.98 3.98 0 01-2.278 2.279c-.422.164-1.06.361-2.227.413-1.266.056-1.646.07-4.848.07s-3.587-.014-4.848-.07c-1.172-.052-1.805-.249-2.227-.413a3.693 3.693 0 01-1.378-.895 3.731 3.731 0 01-.896-1.379c-.164-.422-.36-1.06-.412-2.227-.057-1.266-.07-1.646-.07-4.848s.013-3.586.07-4.848c.051-1.172.248-1.805.412-2.227.192-.52.497-.993.9-1.378a3.725 3.725 0 011.379-.895c.422-.164 1.06-.361 2.227-.413 1.266-.056 1.645-.07 4.848-.07 3.207 0 3.586.014 4.848.07 1.172.052 1.805.249 2.227.413.52.192.993.496 1.378.895.398.39.703.858.895 1.378.164.422.361 1.06.413 2.227.056 1.266.07 1.646.07 4.848s-.014 3.577-.07 4.843z"/><path d="M12.145 6.626a6.167 6.167 0 00-6.165 6.166 6.167 6.167 0 006.165 6.165 6.167 6.167 0 006.166-6.165 6.167 6.167 0 00-6.166-6.166zm0 10.165a4 4 0 11.002-8 4 4 0 01-.002 8zM19.994 6.383a1.44 1.44 0 11-2.88 0 1.44 1.44 0 012.88 0z"/></g><defs><clipPath id="jclip0_32_105"><path fill="#fff" transform="translate(.1 .79)" d="M0 0h24v24H0z"/></clipPath></defs></svg><svg fill="none" viewBox="0 0 57 56" id="leaf" xmlns="http://www.w3.org/2000/svg"><path d="M24.018 56c-1.301 0-2.613-.107-3.923-.324A23.613 23.613 0 014.647 46.07a23.608 23.608 0 01-4.13-17.715.833.833 0 011.643.271A21.956 21.956 0 006.001 45.1a21.959 21.959 0 0014.366 8.934c12.025 1.986 23.423-6.181 25.409-18.205a21.956 21.956 0 00-3.841-16.474A21.958 21.958 0 0027.57 10.42a.833.833 0 11.27-1.642 23.612 23.612 0 0115.449 9.606 23.61 23.61 0 014.13 17.715 23.61 23.61 0 01-9.607 15.447C33.73 54.47 28.942 56 24.019 56z" fill="#09A66D"/><path d="M18.964 20.113C10.075 18.604 4.56 7.413 4.56 7.413S13.46-1.333 22.347.175c8.888 1.507 14.402 12.699 14.402 12.699s-8.897 8.746-17.785 7.239z" fill="#49CB5C"/><path d="M22.347.175c-1.697-.288-3.394-.202-5.03.126 8.517 1.913 13.77 12.573 13.77 12.573s-5.824 5.724-12.755 7.112c.209.047.419.09.632.127 8.888 1.507 17.785-7.24 17.785-7.24S31.235 1.684 22.347.176z" fill="#07B128"/><path d="M36.247 11.944l-8.692-1.466L19.435.023c-.647.038-1.29.121-1.922.24l7.615 9.805-6.554-1.105-5.593-7.236c-.525.237-1.035.488-1.527.748l4.699 6.08-10.838-1.83c-.487.426-.754.688-.754.688s.179.362.521.962l10.78 1.819-5.979 4.622c.385.396.79.788 1.211 1.168l7.002-5.413 6.939 1.17-9.437 7.302c.586.273 1.191.51 1.815.7l9.856-7.624 8.698 1.467c.504-.44.782-.712.782-.712s-.172-.349-.502-.93z" fill="#09A66D"/><path d="M42.795 9.25C45.179 3.607 53.44 1.708 53.44 1.708s4.396 7.248 2.011 12.89C53.07 20.24 44.806 22.14 44.806 22.14s-4.395-7.248-2.011-12.89z" fill="#49CB5C"/><path d="M53.441 1.708s-1.878.432-4.103 1.496c1.142 2.417 2.95 7.323 1.23 11.394-1.247 2.952-4.103 4.879-6.543 6.046.44.933.782 1.496.782 1.496s8.262-1.9 10.646-7.542c2.384-5.642-2.012-12.89-2.012-12.89z" fill="#07B128"/><path d="M56.128 9.945l-6.353 2.665 4.171-9.973c-.298-.59-.505-.93-.505-.93s-.393.091-1.033.291l-4.31 10.306-2.674-6.577c-.453.4-.88.833-1.267 1.304l3.029 7.453-2.846 6.803c.278.542.466.853.466.853s.428-.098 1.115-.316l2.938-7.024 7.267-3.048c.048-.604.045-1.21.002-1.807z" fill="#09A66D"/></svg><svg fill="none" viewBox="0 0 33 16" id="long-arrow" xmlns="http://www.w3.org/2000/svg"><path d="M32.707 8.676a1 1 0 000-1.414L26.343.898a1 1 0 10-1.414 1.414l5.657 5.657-5.657 5.657a1 1 0 001.414 1.414l6.364-6.364zM0 8.969h32v-2H0v2z" fill="#fff"/></svg><svg fill="none" viewBox="0 0 57 56" id="planet-earth" xmlns="http://www.w3.org/2000/svg"><g clip-path="url(#mclip0_32_143)"><path d="M42.424 32.217c0-10.178-8.229-18.43-18.38-18.43-10.152 0-18.38 8.252-18.38 18.43 0 10.178 8.228 18.43 18.38 18.43 10.151 0 18.38-8.252 18.38-18.43z" fill="#89C8FD"/><path d="M24.044 13.788c-.944 0-1.87.07-2.776.208 8.834 1.342 15.605 8.989 15.605 18.22 0 9.233-6.77 16.88-15.605 18.221.905.138 1.832.21 2.776.21 10.151 0 18.38-8.252 18.38-18.43 0-10.178-8.229-18.43-18.38-18.43z" fill="#60B6FF"/><path d="M21.654 20.95c-2.831 1.774-4.955 4.613-3.362 7.807s5.132 1.952 8.406 1.508c3.274-.443.796 9.67 2.743 12.154 1.947 2.484 7.432-2.484 6.902-5.678-.786-4.728-1.062-6.387 5.309-9.758l.017-.007C39.52 19.705 33.02 14.31 25.195 13.825l-.001.027s-.708 5.323-3.54 7.098zM35.56 17.854l.003.003-.003-.003zM37.807 20.004h.001zM11.833 40.556c-.85-1.296 1.504-4.346 2.035-6.653.531-2.307-2.655-2.13-3.628-2.928-.973-.799-2.3-4.258-3.274-5.057l-.155-.123c-.742 2-1.148 4.163-1.148 6.422a18.417 18.417 0 007.491 14.847l.006-.386s.708-3.016-1.327-6.122z" fill="#BAEB6C"/><path d="M36.343 36.741l-.012-.068a18.32 18.32 0 01-1.527 4.045c1.046-1.234 1.744-2.738 1.539-3.977z" fill="#BAEB6C"/><path d="M25.195 13.825l-.001.027s-.06.445-.211 1.119c6.445 2.44 11.164 8.406 11.814 15.553.812-1.11 2.297-2.188 4.855-3.541l.017-.007c-2.147-7.271-8.648-12.666-16.474-13.151z" fill="#96D629"/><path d="M24.018 56c-1.301 0-2.613-.107-3.923-.324A23.613 23.613 0 014.647 46.07a23.608 23.608 0 01-4.13-17.715.833.833 0 011.643.271A21.956 21.956 0 006.001 45.1a21.959 21.959 0 0014.366 8.934c12.025 1.986 23.423-6.181 25.409-18.205a21.956 21.956 0 00-3.841-16.474A21.958 21.958 0 0027.57 10.42a.833.833 0 11.27-1.642 23.612 23.612 0 0115.449 9.606 23.61 23.61 0 014.13 17.715 23.61 23.61 0 01-9.607 15.447C33.73 54.47 28.942 56 24.019 56z" fill="#09A66D"/><path d="M18.964 20.113C10.075 18.604 4.56 7.413 4.56 7.413S13.46-1.333 22.347.175c8.888 1.507 14.402 12.699 14.402 12.699s-8.897 8.746-17.785 7.239z" fill="#49CB5C"/><path d="M22.347.175c-1.697-.288-3.394-.202-5.03.126 8.517 1.913 13.77 12.573 13.77 12.573s-5.824 5.724-12.755 7.112c.209.047.419.09.632.127 8.888 1.507 17.785-7.24 17.785-7.24S31.235 1.684 22.347.176z" fill="#07B128"/><path d="M36.247 11.944l-8.692-1.466L19.435.023c-.647.038-1.29.121-1.922.24l7.615 9.805-6.554-1.105-5.593-7.236c-.525.237-1.035.488-1.527.748l4.699 6.08-10.838-1.83c-.487.426-.754.688-.754.688s.179.362.521.962l10.78 1.819-5.979 4.622c.385.396.79.788 1.211 1.168l7.002-5.413 6.939 1.17-9.437 7.302c.586.273 1.191.51 1.815.7l9.856-7.624 8.698 1.467c.504-.44.782-.712.782-.712s-.172-.349-.502-.93z" fill="#09A66D"/><path d="M42.795 9.25C45.179 3.607 53.44 1.708 53.44 1.708s4.396 7.248 2.011 12.89C53.07 20.24 44.806 22.14 44.806 22.14s-4.395-7.248-2.011-12.89z" fill="#49CB5C"/><path d="M53.441 1.708s-1.878.432-4.103 1.496c1.142 2.417 2.95 7.323 1.23 11.394-1.247 2.952-4.103 4.879-6.543 6.046.44.933.782 1.496.782 1.496s8.262-1.9 10.646-7.542c2.384-5.642-2.012-12.89-2.012-12.89z" fill="#07B128"/><path d="M56.128 9.945l-6.353 2.665 4.171-9.973c-.298-.59-.505-.93-.505-.93s-.393.091-1.033.291l-4.31 10.306-2.674-6.577c-.453.4-.88.833-1.267 1.304l3.029 7.453-2.846 6.803c.278.542.466.853.466.853s.428-.098 1.115-.316l2.938-7.024 7.267-3.048c.048-.604.045-1.21.002-1.807z" fill="#09A66D"/></g><defs><clipPath id="mclip0_32_143"><path fill="#fff" transform="translate(.194)" d="M0 0h56v56H0z"/></clipPath></defs></svg><svg fill="none" viewBox="0 0 21 21" id="search" xmlns="http://www.w3.org/2000/svg"><circle cx="9.961" cy="9.767" r="8.989" stroke="#222" stroke-width="1.5" stroke-linecap="round" stroke-linejoin="round"/><path d="M16.213 16.485L19.737 20" stroke="#222" stroke-width="1.5" stroke-linecap="round" stroke-linejoin="round"/></svg><svg fill="none" viewBox="0 0 41 41" id="shopping-list" xmlns="http://www.w3.org/2000/svg"><g clip-path="url(#oclip0_32_249)"><path d="M15.156 28.715h10.39a.586.586 0 000-1.172h-10.39a.586.586 0 100 1.172zm1.836-13.442h6.956c.53 0 .99-.341 1.145-.849l1.46-4.81a1.185 1.185 0 00-.184-1.06 1.185 1.185 0 00-.96-.484h-.52l-1.063-2.655a1.592 1.592 0 00-1.485-1.006h-3.742c-.658 0-1.241.395-1.486 1.006L16.051 8.07h-.52c-.382 0-.732.176-.96.484a1.185 1.185 0 00-.184 1.06l1.46 4.81a1.19 1.19 0 001.145.849zm-1.48-6.021c.018-.024 3.187-.002 3.21-.01a.586.586 0 100-1.172h-1.409l.889-2.22a.426.426 0 01.397-.27h3.742c.176 0 .332.107.397.27l.888 2.22h-2.17a.586.586 0 000 1.172c.02 0 3.957-.01 3.972.01.017.023-1.457 4.807-1.457 4.832 0 .052-7 .01-7.003 0-.007-.025-1.473-4.809-1.456-4.832zm-.356 25.308a.586.586 0 100 1.172h10.39a.586.586 0 000-1.172h-10.39zm15.664-1.757a.586.586 0 00-.586-.586H15.156a.586.586 0 000 1.172h15.078a.586.586 0 00.586-.586zm2.93-6.26a.586.586 0 00.586-.587V3.823a2.933 2.933 0 00-2.93-2.93H9.534a2.933 2.933 0 00-2.93 2.93v34.14a2.933 2.933 0 002.93 2.93h21.872a2.933 2.933 0 002.93-2.93v-9.272a.586.586 0 10-1.172 0v9.273a1.76 1.76 0 01-1.758 1.758H9.534a1.76 1.76 0 01-1.758-1.758V3.824c0-.97.788-1.759 1.758-1.759h21.872c.97 0 1.758.789 1.758 1.758v22.133c0 .324.262.586.586.586zm-20.91 2.621c-.29.004-.592.007-.87.008.198-.267.447-.612.758-1.056.272-.39.465-.742.515-1.108.008-.06.024-.168.024-.225 0-.873-.71-1.584-1.583-1.584-.755 0-1.408.538-1.554 1.278a.586.586 0 001.15.225.411.411 0 01.814.052c.015.21-.092.355-.326.69-.616.88-.983 1.36-1.18 1.619-.345.45-.51 1.038.087 1.237.077.026 1.624.043 2.179.036a.586.586 0 10-.015-1.172zM30.233 25.2H15.156a.586.586 0 000 1.172h15.078a.586.586 0 100-1.172zm-18.458 7.018c-.755 0-1.408.537-1.554 1.277a.586.586 0 001.15.225.412.412 0 11.404.492.586.586 0 000 1.172.412.412 0 11-.411.412.586.586 0 00-1.172 0c0 .86.714 1.583 1.583 1.583.873 0 1.583-.71 1.583-1.583 0-.378-.133-.725-.355-.998.222-.272.355-.62.355-.997 0-.873-.71-1.583-1.583-1.583zm0-8.935a.586.586 0 00.586-.586V18.8a.586.586 0 00-.586-.586h-.833a.586.586 0 000 1.172h.247v3.311c0 .324.262.586.586.586zm3.38-1.554h10.39a.586.586 0 100-1.171h-10.39a.586.586 0 100 1.171zm15.078-3.515H15.156a.586.586 0 000 1.172h15.078a.586.586 0 000-1.172z" fill="#09A66D"/></g><defs><clipPath id="oclip0_32_249"><path fill="#fff" transform="translate(.47 .893)" d="M0 0h40v40H0z"/></clipPath></defs></svg><svg fill="none" viewBox="0 0 24 24" id="star" xmlns="http://www.w3.org/2000/svg"><g clip-path="url(#pclip0_32_293)"><path d="M12.011 17.615l-6.804 3.809 1.52-7.648L1 8.482l7.744-.919L12.01.483l3.267 7.08 7.743.919-5.725 5.294 1.52 7.648-6.805-3.809z" fill="#F1B90B"/></g><defs><clipPath id="pclip0_32_293"><path fill="#fff" transform="translate(.435)" d="M0 0h23.152v23.152H0z"/></clipPath></defs></svg><svg fill="none" viewBox="0 0 32 32" id="star-weird" xmlns="http://www.w3.org/2000/svg"><g clip-path="url(#qclip0_32_183)"><path d="M31.954 12.329a.937.937 0 00-.757-.639l-9.92-1.441-4.436-8.99a.937.937 0 00-1.682 0l-4.436 8.99-9.92 1.441a.937.937 0 00-.52 1.6l7.178 6.997-1.694 9.88a.938.938 0 001.36.988L16 26.49l8.873 4.665a.937.937 0 001.36-.988l-1.695-9.88 7.179-6.997a.937.937 0 00.237-.961z" fill="#FED42D"/><path d="M31.954 12.329a.937.937 0 00-.757-.639l-9.92-1.441-4.436-8.99A.937.937 0 0016 .738V26.49l8.872 4.665a.935.935 0 00.987-.071.938.938 0 00.373-.917l-1.695-9.88 7.179-6.997a.937.937 0 00.237-.961z" fill="#FCBF29"/></g><defs><clipPath id="qclip0_32_183"><path fill="#fff" d="M0 0h32v32H0z"/></clipPath></defs></svg><svg fill="none" viewBox="0 0 12 18" id="swiper-arrow" xmlns="http://www.w3.org/2000/svg"><path d="M7.358 8.576l-6.6-6.6L2.644.091l8.485 8.485-8.485 8.485-1.886-1.885 6.6-6.6z" fill="#fff"/></svg><svg fill="none" viewBox="0 0 25 25" id="twitter" xmlns="http://www.w3.org/2000/svg"><g clip-path="url(#sclip0_32_101)"><path d="M24.1 5.348c-.892.392-1.843.651-2.834.777a4.893 4.893 0 002.164-2.72 9.833 9.833 0 01-3.12 1.192A4.919 4.919 0 0011.8 7.962c0 .39.033.764.114 1.121-4.09-.2-7.71-2.16-10.141-5.146a4.954 4.954 0 00-.674 2.487c0 1.704.878 3.214 2.186 4.089a4.858 4.858 0 01-2.223-.606v.054a4.943 4.943 0 003.942 4.834c-.4.11-.837.162-1.29.162a4.35 4.35 0 01-.932-.084c.638 1.949 2.447 3.381 4.598 3.428a9.886 9.886 0 01-6.1 2.098c-.404 0-.791-.018-1.178-.067a13.852 13.852 0 007.548 2.208c9.054 0 14.004-7.5 14.004-14.001 0-.218-.008-.428-.018-.636A9.816 9.816 0 0024.1 5.348z" fill="#222"/></g><defs><clipPath id="sclip0_32_101"><path fill="#fff" transform="translate(.1 .79)" d="M0 0h24v24H0z"/></clipPath></defs></svg><svg fill="none" viewBox="0 0 32 32" id="user" xmlns="http://www.w3.org/2000/svg"><g clip-path="url(#tclip0_32_168)" fill="#09A66D"><path d="M16.002 0c-4.571 0-8.308 3.737-8.308 8.308 0 4.572 3.737 8.309 8.308 8.309 4.572 0 8.309-3.737 8.309-8.309C24.31 3.737 20.574 0 16.002 0zM30.26 23.256a7.745 7.745 0 00-.834-1.523c-1.669-2.468-4.245-4.1-7.147-4.5-.363-.036-.762.037-1.052.255a8.74 8.74 0 01-5.225 1.705 8.74 8.74 0 01-5.224-1.706 1.361 1.361 0 00-1.052-.253 10.252 10.252 0 00-7.148 4.498 8.928 8.928 0 00-.834 1.524c-.109.218-.073.472.036.69.29.508.653 1.016.98 1.45.508.69 1.052 1.307 1.669 1.887.507.508 1.088.98 1.669 1.452A16.437 16.437 0 0015.966 32c3.556 0 7.002-1.125 9.868-3.265a15.96 15.96 0 001.67-1.451c.58-.581 1.16-1.198 1.668-1.887.363-.472.69-.943.98-1.451.181-.218.217-.472.109-.69z"/></g><defs><clipPath id="tclip0_32_168"><path fill="#fff" d="M0 0h32v32H0z"/></clipPath></defs></svg></svg>